# xmcd
#
# Track frame offsets: 
#        150
#        17753
#        41706
#        60944
#        82349
#        106544
#        116691
#        132364
#        150981
#        173752
#        195655
#        217045
#        235723
#        253331
#        274520
#        290213
#        310955
#        328531
#
# Disc length: 4736 seconds
#
# Revision: 0
# Processed by: cddbd v1.5.2PL0 Copyright (c) Steve Scherf et al.
# Submitted via: ExactAudioCopy v0.99pb5
#
DISCID=00127e12
DTITLE=Sanatana (VA) - Santana - Greatest Hits CD2
DYEAR=2008
DGENRE=Latin
TTITLE0=Santana - Evil Ways
TTITLE1=Santana - Black Magic Woman - Gypsy Queen
TTITLE2=Santana - Oye Como Va
TTITLE3=Santana - Samba Pa' Ti
TTITLE4=Santana - No One to Depend On
TTITLE5=Santana - Carnaval
TTITLE6=Santana - Let the Children Play
TTITLE7=Santana - She's Not There
TTITLE8=Santana - Europa (Earth's Cry Heaven's Smile)
TTITLE9=Santana - Flor D'Luna (Moonflower)
TTITLE10=Santana - Stormy
TTITLE11=Santana - Well All Right
TTITLE12=Santana - Aqua Marine (Single Version)
TTITLE13=Santana - I Love Yoy Much Too Much
TTITLE14=Santana - Winning
TTITLE15=Santana -  Hold On
TTITLE16=Santana - Love Is You
TTITLE17=Santana - Blues for Salvador
EXTD=
EXTT0=
EXTT1=
EXTT2=
EXTT3=
EXTT4=
EXTT5=
EXTT6=
EXTT7=
EXTT8=
EXTT9=
EXTT10=
EXTT11=
EXTT12=
EXTT13=
EXTT14=
EXTT15=
EXTT16=
EXTT17=
PLAYORDER=
